<?xml version="1.0" encoding="UTF-8"?>
<svg xmlns="http://www.w3.org/2000/svg" width="888.7701" height="110.24" viewBox="0 0 88.877 11.024">
  <!-- epiphany-render-svg: glyphs are genuine Bravura SMuFL outlines inlined as paths; geometry is the resolved layout verbatim, no engraving performed here; every glyph and stroke carries a data-prov trace to its score-graph source -->
  <g transform="translate(3.065 7.392) scale(1 -1)">
    <g data-layer="0">
      <line x1="0" y1="0" x2="0" y2="0" stroke="#000000" stroke-width="0" data-prov="01550dc9d118134419219044f188e28a" data-source-kind="6" data-kind="stroke"/>
      <line x1="-1" y1="0" x2="83.4" y2="0" stroke="#000000" stroke-width="0.13" data-prov="5235156954d3cdda987a3da1af222a55" data-source-kind="3" data-kind="stroke"/>
      <line x1="-1" y1="1" x2="83.4" y2="1" stroke="#000000" stroke-width="0.13" data-prov="10cbe3e182e937b8e3d90a03397b2e97" data-source-kind="3" data-kind="stroke"/>
      <line x1="-1" y1="2" x2="83.4" y2="2" stroke="#000000" stroke-width="0.13" data-prov="94825cd467fe6fb512d271e66b59674a" data-source-kind="3" data-kind="stroke"/>
      <line x1="-1" y1="3" x2="83.4" y2="3" stroke="#000000" stroke-width="0.13" data-prov="bc2cd26cec8e4650eedcf04fbc91320f" data-source-kind="3" data-kind="stroke"/>
      <line x1="-1" y1="4" x2="83.4" y2="4" stroke="#000000" stroke-width="0.13" data-prov="c46b9445a4c5ff909f50b13f9025c4a3" data-source-kind="3" data-kind="stroke"/>
      <line x1="0" y1="0" x2="0" y2="0" stroke="#000000" stroke-width="0" data-prov="fe116eb75ff697f9f2451c10c05349c6" data-source-kind="2" data-kind="stroke"/>
      <line x1="5.75" y1="-1" x2="5.75" y2="2.5" stroke="#000000" stroke-width="0.12" data-prov="dbd573fbc0c21f9b07a8537f658b048c" data-source-kind="0" data-kind="stroke"/>
      <line x1="7.35" y1="-1" x2="7.35" y2="2.5" stroke="#000000" stroke-width="0.12" data-prov="276b6f72f2bcb818f84229b6833ce022" data-source-kind="0" data-kind="stroke"/>
      <line x1="8.95" y1="-1" x2="8.95" y2="2.5" stroke="#000000" stroke-width="0.12" data-prov="d1b0067ebb2b2b9115a77aaadc53bffe" data-source-kind="0" data-kind="stroke"/>
      <line x1="10.55" y1="-1" x2="10.55" y2="2.5" stroke="#000000" stroke-width="0.12" data-prov="13303d184ca25b99835d71e21f3a96df" data-source-kind="0" data-kind="stroke"/>
      <line x1="13.75" y1="-1" x2="13.75" y2="2.5" stroke="#000000" stroke-width="0.12" data-prov="aa33134cf72cebda65d1b2b427230541" data-source-kind="0" data-kind="stroke"/>
      <line x1="15.35" y1="-1" x2="15.35" y2="2.5" stroke="#000000" stroke-width="0.12" data-prov="01d06ae931cf05983e4b17744108297b" data-source-kind="0" data-kind="stroke"/>
      <line x1="16.95" y1="-1" x2="16.95" y2="2.5" stroke="#000000" stroke-width="0.12" data-prov="47c9ce76466974ecfabe4a9cafb75c3c" data-source-kind="0" data-kind="stroke"/>
      <line x1="18.55" y1="-1" x2="18.55" y2="2.5" stroke="#000000" stroke-width="0.12" data-prov="e6d1c0a44d13be2700ad4381e1d518fa" data-source-kind="0" data-kind="stroke"/>
      <line x1="21.75" y1="-1" x2="21.75" y2="2.5" stroke="#000000" stroke-width="0.12" data-prov="370a65aab516f6792e49a1ed28bd5cd9" data-source-kind="0" data-kind="stroke"/>
      <line x1="23.35" y1="-1" x2="23.35" y2="2.5" stroke="#000000" stroke-width="0.12" data-prov="75b4bca159d5c28b10b2078bb457bb53" data-source-kind="0" data-kind="stroke"/>
      <line x1="24.95" y1="-1" x2="24.95" y2="2.5" stroke="#000000" stroke-width="0.12" data-prov="c4531390972e55a43af2bd9f85e3c250" data-source-kind="0" data-kind="stroke"/>
      <line x1="26.55" y1="-1" x2="26.55" y2="2.5" stroke="#000000" stroke-width="0.12" data-prov="888c6ef019fc4b0fc714672a4444c60c" data-source-kind="0" data-kind="stroke"/>
      <line x1="29.75" y1="-1" x2="29.75" y2="2.5" stroke="#000000" stroke-width="0.12" data-prov="6c70ad9006ed8fbb104d77eba3f2dbcb" data-source-kind="0" data-kind="stroke"/>
      <line x1="31.35" y1="-1" x2="31.35" y2="2.5" stroke="#000000" stroke-width="0.12" data-prov="debe82da2c34817a871d8a4cc5cc3fdd" data-source-kind="0" data-kind="stroke"/>
      <line x1="32.95" y1="-1" x2="32.95" y2="2.5" stroke="#000000" stroke-width="0.12" data-prov="7b524c2e9e5657b68fd1a81337887c2e" data-source-kind="0" data-kind="stroke"/>
      <line x1="34.55" y1="-1" x2="34.55" y2="2.5" stroke="#000000" stroke-width="0.12" data-prov="cb31fbbd4a3e3eb17ed06e65f40589e5" data-source-kind="0" data-kind="stroke"/>
      <line x1="37.75" y1="-1" x2="37.75" y2="2.5" stroke="#000000" stroke-width="0.12" data-prov="bc1cc9bede7fc3c72827cfbf184cdb7e" data-source-kind="0" data-kind="stroke"/>
      <line x1="39.35" y1="-1" x2="39.35" y2="2.5" stroke="#000000" stroke-width="0.12" data-prov="95891bc2b58231a1618b5d422e6131b0" data-source-kind="0" data-kind="stroke"/>
      <line x1="40.95" y1="-1" x2="40.95" y2="2.5" stroke="#000000" stroke-width="0.12" data-prov="ed21002861831422bdbb36e8f981d2a9" data-source-kind="0" data-kind="stroke"/>
      <line x1="42.55" y1="-1" x2="42.55" y2="2.5" stroke="#000000" stroke-width="0.12" data-prov="e49748251746a6dbdf15aa8dd983e6e7" data-source-kind="0" data-kind="stroke"/>
      <line x1="45.75" y1="-1" x2="45.75" y2="2.5" stroke="#000000" stroke-width="0.12" data-prov="8d2938a01abfe451991829fbde6d2b94" data-source-kind="0" data-kind="stroke"/>
      <line x1="47.35" y1="-1" x2="47.35" y2="2.5" stroke="#000000" stroke-width="0.12" data-prov="88366a6edcce03db41d39d08b2616742" data-source-kind="0" data-kind="stroke"/>
      <line x1="48.95" y1="-1" x2="48.95" y2="2.5" stroke="#000000" stroke-width="0.12" data-prov="77a10c7862f0ffce98d309bb71ce675f" data-source-kind="0" data-kind="stroke"/>
      <line x1="50.55" y1="-1" x2="50.55" y2="2.5" stroke="#000000" stroke-width="0.12" data-prov="cfa457e70519a1826f321a56cb3fd03b" data-source-kind="0" data-kind="stroke"/>
      <line x1="53.75" y1="-1" x2="53.75" y2="2.5" stroke="#000000" stroke-width="0.12" data-prov="273d04eeece605789035a29d80023c2c" data-source-kind="0" data-kind="stroke"/>
      <line x1="55.35" y1="-1" x2="55.35" y2="2.5" stroke="#000000" stroke-width="0.12" data-prov="a23b09fda2784b566bf1de48e89a2baa" data-source-kind="0" data-kind="stroke"/>
      <line x1="56.95" y1="-1" x2="56.95" y2="2.5" stroke="#000000" stroke-width="0.12" data-prov="edf9ca4611cfc17faace6241cae3b73d" data-source-kind="0" data-kind="stroke"/>
      <line x1="58.55" y1="-1" x2="58.55" y2="2.5" stroke="#000000" stroke-width="0.12" data-prov="f1e3c0367633266d5f188e5bd6d98ad4" data-source-kind="0" data-kind="stroke"/>
      <line x1="61.75" y1="-1" x2="61.75" y2="2.5" stroke="#000000" stroke-width="0.12" data-prov="2bf824905032462ee8c9988b780feabf" data-source-kind="0" data-kind="stroke"/>
      <line x1="63.35" y1="-1" x2="63.35" y2="2.5" stroke="#000000" stroke-width="0.12" data-prov="08a65aebf8baaded74feb3ec7cc36d18" data-source-kind="0" data-kind="stroke"/>
      <line x1="64.95" y1="-1" x2="64.95" y2="2.5" stroke="#000000" stroke-width="0.12" data-prov="d155779804ad660f4466745153872349" data-source-kind="0" data-kind="stroke"/>
      <line x1="66.55" y1="-1" x2="66.55" y2="2.5" stroke="#000000" stroke-width="0.12" data-prov="af73177552d5fa95b746caf62d000623" data-source-kind="0" data-kind="stroke"/>
      <line x1="69.75" y1="-1" x2="69.75" y2="2.5" stroke="#000000" stroke-width="0.12" data-prov="7c839e4fb5f2522c8fde3b48577eafae" data-source-kind="0" data-kind="stroke"/>
      <line x1="71.35" y1="-1" x2="71.35" y2="2.5" stroke="#000000" stroke-width="0.12" data-prov="0c8e0b8170c827494e606d4541ce2c89" data-source-kind="0" data-kind="stroke"/>
      <line x1="72.95" y1="-1" x2="72.95" y2="2.5" stroke="#000000" stroke-width="0.12" data-prov="42480ffc14ad129d8dec456e7bad317c" data-source-kind="0" data-kind="stroke"/>
      <line x1="74.55" y1="-1" x2="74.55" y2="2.5" stroke="#000000" stroke-width="0.12" data-prov="0f408610c63793003f04e3af5a03493f" data-source-kind="0" data-kind="stroke"/>
      <line x1="76.15" y1="-1" x2="76.15" y2="2.5" stroke="#000000" stroke-width="0.12" data-prov="99d50b32a7d1eac1019c14132a834144" data-source-kind="0" data-kind="stroke"/>
      <line x1="77.75" y1="-1" x2="77.75" y2="2.5" stroke="#000000" stroke-width="0.12" data-prov="572e96450f21b18771e510c6c41444dc" data-source-kind="0" data-kind="stroke"/>
      <line x1="79.35" y1="-1" x2="79.35" y2="2.5" stroke="#000000" stroke-width="0.12" data-prov="68935c410dbe357c3f80b01c6e6d3cb1" data-source-kind="0" data-kind="stroke"/>
      <line x1="80.95" y1="-1" x2="80.95" y2="2.5" stroke="#000000" stroke-width="0.12" data-prov="9e9ba65603d31963bdc6d55dfacc5eba" data-source-kind="0" data-kind="stroke"/>
      <line x1="0" y1="0" x2="0" y2="0" stroke="#000000" stroke-width="0" data-prov="40a9a55985c8bf8b1eb66b6d8c8e7b7a" data-source-kind="12" data-kind="stroke"/>
      <line x1="0" y1="0" x2="0" y2="0" stroke="#000000" stroke-width="0" data-prov="10eb9773d25f0d7d64f92b36f88e5b38" data-source-kind="14" data-kind="stroke"/>
      <line x1="0" y1="0" x2="0" y2="0" stroke="#000000" stroke-width="0" data-prov="86a982398112115027c54222505dd143" data-source-kind="15" data-kind="stroke"/>
      <line x1="0" y1="0" x2="0" y2="0" stroke="#000000" stroke-width="0" data-prov="c183669ac91f35eb7a0040b48fde85ab" data-source-kind="25" data-kind="stroke"/>
      <path d="M1.504 1.66C1.496 1.708 1.504 1.712 1.528 1.736C1.96 2.14 2.288 2.648 2.288 3.26C2.288 3.608 2.192 3.952 2.028 4.192C1.968 4.28 1.864 4.392 1.82 4.392C1.764 4.392 1.64 4.288 1.56 4.2C1.264 3.872 1.168 3.372 1.168 2.956C1.168 2.724 1.196 2.464 1.224 2.3C1.232 2.252 1.236 2.244 1.188 2.204C0.612 1.728 0 1.156 0 0.348C0 -0.348 0.476 -1.008 1.456 -1.008C1.548 -1.008 1.652 -1 1.732 -0.984C1.776 -0.976 1.784 -0.972 1.792 -1.02C1.84 -1.288 1.9 -1.636 1.9 -1.824C1.9 -2.416 1.5 -2.488 1.264 -2.488C1.048 -2.488 0.944 -2.424 0.944 -2.372C0.944 -2.344 0.98 -2.332 1.072 -2.304C1.196 -2.268 1.34 -2.16 1.34 -1.928C1.34 -1.708 1.2 -1.52 0.956 -1.52C0.688 -1.52 0.528 -1.732 0.528 -1.98C0.528 -2.24 0.684 -2.632 1.288 -2.632C1.556 -2.632 2.076 -2.512 2.076 -1.832C2.076 -1.604 2.004 -1.224 1.96 -0.976C1.952 -0.928 1.956 -0.932 2.012 -0.908C2.416 -0.748 2.684 -0.408 2.684 0.044C2.684 0.556 2.308 1.008 1.72 1.008C1.616 1.008 1.616 1.008 1.604 1.08ZM1.88 3.772C2.012 3.772 2.12 3.664 2.12 3.444C2.12 3 1.74 2.64 1.424 2.364C1.396 2.34 1.38 2.344 1.372 2.396C1.356 2.5 1.348 2.636 1.348 2.764C1.348 3.388 1.636 3.772 1.88 3.772ZM1.444 1.048C1.456 0.972 1.456 0.976 1.384 0.952C1.032 0.832 0.804 0.516 0.804 0.176C0.804 -0.184 0.992 -0.44 1.264 -0.532C1.296 -0.544 1.344 -0.556 1.372 -0.556C1.404 -0.556 1.42 -0.536 1.42 -0.512C1.42 -0.484 1.388 -0.472 1.36 -0.46C1.192 -0.388 1.072 -0.216 1.072 -0.032C1.072 0.196 1.228 0.368 1.472 0.436C1.536 0.452 1.544 0.448 1.552 0.404L1.752 -0.788C1.76 -0.832 1.756 -0.832 1.696 -0.844C1.632 -0.856 1.552 -0.864 1.472 -0.864C0.772 -0.864 0.32 -0.476 0.32 0.08C0.32 0.316 0.36 0.632 0.692 1.008C0.932 1.276 1.116 1.424 1.304 1.576C1.344 1.608 1.352 1.604 1.36 1.56ZM1.72 0.412C1.712 0.46 1.716 0.472 1.764 0.468C2.088 0.44 2.356 0.168 2.356 -0.184C2.356 -0.436 2.204 -0.64 1.98 -0.752C1.932 -0.776 1.924 -0.776 1.916 -0.728Z" transform="translate(0 1)" fill="#000000" data-prov="2bc09f9490decea3e13f24459f1b64f4" data-source-kind="4" data-glyph="gClef" data-class="clef"/>
      <path d="M0.388 -0.5C0.744 -0.5 1.18 -0.172 1.18 0.168C1.18 0.372 1.02 0.5 0.792 0.5C0.352 0.5 0 0.176 0 -0.168C0 -0.376 0.172 -0.5 0.388 -0.5Z" transform="translate(4.6 -1)" fill="#000000" data-prov="870b54f8730bed8251f4f891a3c4b233" data-source-kind="1" data-glyph="noteheadBlack" data-class="notehead"/>
      <path d="M0.388 -0.5C0.744 -0.5 1.18 -0.172 1.18 0.168C1.18 0.372 1.02 0.5 0.792 0.5C0.352 0.5 0 0.176 0 -0.168C0 -0.376 0.172 -0.5 0.388 -0.5Z" transform="translate(6.2 -1)" fill="#000000" data-prov="5833135b23eaf581bccad90222f64e7e" data-source-kind="1" data-glyph="noteheadBlack" data-class="notehead"/>
      <path d="M0.388 -0.5C0.744 -0.5 1.18 -0.172 1.18 0.168C1.18 0.372 1.02 0.5 0.792 0.5C0.352 0.5 0 0.176 0 -0.168C0 -0.376 0.172 -0.5 0.388 -0.5Z" transform="translate(7.8 -1)" fill="#000000" data-prov="3c653d764b31b22273540a079363370c" data-source-kind="1" data-glyph="noteheadBlack" data-class="notehead"/>
      <path d="M0.388 -0.5C0.744 -0.5 1.18 -0.172 1.18 0.168C1.18 0.372 1.02 0.5 0.792 0.5C0.352 0.5 0 0.176 0 -0.168C0 -0.376 0.172 -0.5 0.388 -0.5Z" transform="translate(9.4 -1)" fill="#000000" data-prov="dfd195901678557bdc1f1351634d2b68" data-source-kind="1" data-glyph="noteheadBlack" data-class="notehead"/>
      <path d="M0.388 -0.5C0.744 -0.5 1.18 -0.172 1.18 0.168C1.18 0.372 1.02 0.5 0.792 0.5C0.352 0.5 0 0.176 0 -0.168C0 -0.376 0.172 -0.5 0.388 -0.5Z" transform="translate(12.6 -1)" fill="#000000" data-prov="99d206152de1651afeef963c42d7984f" data-source-kind="1" data-glyph="noteheadBlack" data-class="notehead"/>
      <path d="M0.388 -0.5C0.744 -0.5 1.18 -0.172 1.18 0.168C1.18 0.372 1.02 0.5 0.792 0.5C0.352 0.5 0 0.176 0 -0.168C0 -0.376 0.172 -0.5 0.388 -0.5Z" transform="translate(14.2 -1)" fill="#000000" data-prov="1340dc8c93d5925410da02d683dd5916" data-source-kind="1" data-glyph="noteheadBlack" data-class="notehead"/>
      <path d="M0.388 -0.5C0.744 -0.5 1.18 -0.172 1.18 0.168C1.18 0.372 1.02 0.5 0.792 0.5C0.352 0.5 0 0.176 0 -0.168C0 -0.376 0.172 -0.5 0.388 -0.5Z" transform="translate(15.8 -1)" fill="#000000" data-prov="d9b7e874516d265e3c165a16887a22bd" data-source-kind="1" data-glyph="noteheadBlack" data-class="notehead"/>
      <path d="M0.388 -0.5C0.744 -0.5 1.18 -0.172 1.18 0.168C1.18 0.372 1.02 0.5 0.792 0.5C0.352 0.5 0 0.176 0 -0.168C0 -0.376 0.172 -0.5 0.388 -0.5Z" transform="translate(17.4 -1)" fill="#000000" data-prov="12ef29aff1cc56481133aec42c0d1d35" data-source-kind="1" data-glyph="noteheadBlack" data-class="notehead"/>
      <path d="M0.388 -0.5C0.744 -0.5 1.18 -0.172 1.18 0.168C1.18 0.372 1.02 0.5 0.792 0.5C0.352 0.5 0 0.176 0 -0.168C0 -0.376 0.172 -0.5 0.388 -0.5Z" transform="translate(20.6 -1)" fill="#000000" data-prov="6f2586548ccd7de6800f74edd852d03b" data-source-kind="1" data-glyph="noteheadBlack" data-class="notehead"/>
      <path d="M0.388 -0.5C0.744 -0.5 1.18 -0.172 1.18 0.168C1.18 0.372 1.02 0.5 0.792 0.5C0.352 0.5 0 0.176 0 -0.168C0 -0.376 0.172 -0.5 0.388 -0.5Z" transform="translate(22.2 -1)" fill="#000000" data-prov="6cd2fcd32ca7d1441b6534c025d7ae93" data-source-kind="1" data-glyph="noteheadBlack" data-class="notehead"/>
      <path d="M0.388 -0.5C0.744 -0.5 1.18 -0.172 1.18 0.168C1.18 0.372 1.02 0.5 0.792 0.5C0.352 0.5 0 0.176 0 -0.168C0 -0.376 0.172 -0.5 0.388 -0.5Z" transform="translate(23.8 -1)" fill="#000000" data-prov="e71f03f7d3d50a64ea72ce4bcdffb03e" data-source-kind="1" data-glyph="noteheadBlack" data-class="notehead"/>
      <path d="M0.388 -0.5C0.744 -0.5 1.18 -0.172 1.18 0.168C1.18 0.372 1.02 0.5 0.792 0.5C0.352 0.5 0 0.176 0 -0.168C0 -0.376 0.172 -0.5 0.388 -0.5Z" transform="translate(25.4 -1)" fill="#000000" data-prov="0227904e88f6312904444c17ae540b57" data-source-kind="1" data-glyph="noteheadBlack" data-class="notehead"/>
      <path d="M0.388 -0.5C0.744 -0.5 1.18 -0.172 1.18 0.168C1.18 0.372 1.02 0.5 0.792 0.5C0.352 0.5 0 0.176 0 -0.168C0 -0.376 0.172 -0.5 0.388 -0.5Z" transform="translate(28.6 -1)" fill="#000000" data-prov="6cce2821ccbb4f5769708cb9ca3c38a7" data-source-kind="1" data-glyph="noteheadBlack" data-class="notehead"/>
      <path d="M0.388 -0.5C0.744 -0.5 1.18 -0.172 1.18 0.168C1.18 0.372 1.02 0.5 0.792 0.5C0.352 0.5 0 0.176 0 -0.168C0 -0.376 0.172 -0.5 0.388 -0.5Z" transform="translate(30.2 -1)" fill="#000000" data-prov="9952a70d5e0f9911d93466e83edc252e" data-source-kind="1" data-glyph="noteheadBlack" data-class="notehead"/>
      <path d="M0.388 -0.5C0.744 -0.5 1.18 -0.172 1.18 0.168C1.18 0.372 1.02 0.5 0.792 0.5C0.352 0.5 0 0.176 0 -0.168C0 -0.376 0.172 -0.5 0.388 -0.5Z" transform="translate(31.8 -1)" fill="#000000" data-prov="1ead59d59c0c7cec46071003e7741905" data-source-kind="1" data-glyph="noteheadBlack" data-class="notehead"/>
      <path d="M0.388 -0.5C0.744 -0.5 1.18 -0.172 1.18 0.168C1.18 0.372 1.02 0.5 0.792 0.5C0.352 0.5 0 0.176 0 -0.168C0 -0.376 0.172 -0.5 0.388 -0.5Z" transform="translate(33.4 -1)" fill="#000000" data-prov="4b82f873de97ed4fa80748acbf368585" data-source-kind="1" data-glyph="noteheadBlack" data-class="notehead"/>
      <path d="M0.388 -0.5C0.744 -0.5 1.18 -0.172 1.18 0.168C1.18 0.372 1.02 0.5 0.792 0.5C0.352 0.5 0 0.176 0 -0.168C0 -0.376 0.172 -0.5 0.388 -0.5Z" transform="translate(36.6 -1)" fill="#000000" data-prov="a26098a444bb635ce82ff700f48491ed" data-source-kind="1" data-glyph="noteheadBlack" data-class="notehead"/>
      <path d="M0.388 -0.5C0.744 -0.5 1.18 -0.172 1.18 0.168C1.18 0.372 1.02 0.5 0.792 0.5C0.352 0.5 0 0.176 0 -0.168C0 -0.376 0.172 -0.5 0.388 -0.5Z" transform="translate(38.2 -1)" fill="#000000" data-prov="460c0831f9fd8de9b01a3a4bac641c8e" data-source-kind="1" data-glyph="noteheadBlack" data-class="notehead"/>
      <path d="M0.388 -0.5C0.744 -0.5 1.18 -0.172 1.18 0.168C1.18 0.372 1.02 0.5 0.792 0.5C0.352 0.5 0 0.176 0 -0.168C0 -0.376 0.172 -0.5 0.388 -0.5Z" transform="translate(39.8 -1)" fill="#000000" data-prov="50dc15968bfd55c7637d0dde7c2f7bb3" data-source-kind="1" data-glyph="noteheadBlack" data-class="notehead"/>
      <path d="M0.388 -0.5C0.744 -0.5 1.18 -0.172 1.18 0.168C1.18 0.372 1.02 0.5 0.792 0.5C0.352 0.5 0 0.176 0 -0.168C0 -0.376 0.172 -0.5 0.388 -0.5Z" transform="translate(41.4 -1)" fill="#000000" data-prov="d095c952d8865af497a68b9fb543c15e" data-source-kind="1" data-glyph="noteheadBlack" data-class="notehead"/>
      <path d="M0.388 -0.5C0.744 -0.5 1.18 -0.172 1.18 0.168C1.18 0.372 1.02 0.5 0.792 0.5C0.352 0.5 0 0.176 0 -0.168C0 -0.376 0.172 -0.5 0.388 -0.5Z" transform="translate(44.6 -1)" fill="#000000" data-prov="1e4cb41d3c7556e314182c82b7790bef" data-source-kind="1" data-glyph="noteheadBlack" data-class="notehead"/>
      <path d="M0.388 -0.5C0.744 -0.5 1.18 -0.172 1.18 0.168C1.18 0.372 1.02 0.5 0.792 0.5C0.352 0.5 0 0.176 0 -0.168C0 -0.376 0.172 -0.5 0.388 -0.5Z" transform="translate(46.2 -1)" fill="#000000" data-prov="9645397274cb84055aeba5639f8b06a5" data-source-kind="1" data-glyph="noteheadBlack" data-class="notehead"/>
      <path d="M0.388 -0.5C0.744 -0.5 1.18 -0.172 1.18 0.168C1.18 0.372 1.02 0.5 0.792 0.5C0.352 0.5 0 0.176 0 -0.168C0 -0.376 0.172 -0.5 0.388 -0.5Z" transform="translate(47.8 -1)" fill="#000000" data-prov="9578182658c00300531491532d13f66a" data-source-kind="1" data-glyph="noteheadBlack" data-class="notehead"/>
      <path d="M0.388 -0.5C0.744 -0.5 1.18 -0.172 1.18 0.168C1.18 0.372 1.02 0.5 0.792 0.5C0.352 0.5 0 0.176 0 -0.168C0 -0.376 0.172 -0.5 0.388 -0.5Z" transform="translate(49.4 -1)" fill="#000000" data-prov="0a4dcf79021a9ba0366091e34fab456c" data-source-kind="1" data-glyph="noteheadBlack" data-class="notehead"/>
      <path d="M0.388 -0.5C0.744 -0.5 1.18 -0.172 1.18 0.168C1.18 0.372 1.02 0.5 0.792 0.5C0.352 0.5 0 0.176 0 -0.168C0 -0.376 0.172 -0.5 0.388 -0.5Z" transform="translate(52.6 -1)" fill="#000000" data-prov="4b3905877c48341998d76f07cdb9eff5" data-source-kind="1" data-glyph="noteheadBlack" data-class="notehead"/>
      <path d="M0.388 -0.5C0.744 -0.5 1.18 -0.172 1.18 0.168C1.18 0.372 1.02 0.5 0.792 0.5C0.352 0.5 0 0.176 0 -0.168C0 -0.376 0.172 -0.5 0.388 -0.5Z" transform="translate(54.2 -1)" fill="#000000" data-prov="4582d540c93386289e704713ab2deeeb" data-source-kind="1" data-glyph="noteheadBlack" data-class="notehead"/>
      <path d="M0.388 -0.5C0.744 -0.5 1.18 -0.172 1.18 0.168C1.18 0.372 1.02 0.5 0.792 0.5C0.352 0.5 0 0.176 0 -0.168C0 -0.376 0.172 -0.5 0.388 -0.5Z" transform="translate(55.8 -1)" fill="#000000" data-prov="b6d88aa94cc5462fed11ef21a9b9d6df" data-source-kind="1" data-glyph="noteheadBlack" data-class="notehead"/>
      <path d="M0.388 -0.5C0.744 -0.5 1.18 -0.172 1.18 0.168C1.18 0.372 1.02 0.5 0.792 0.5C0.352 0.5 0 0.176 0 -0.168C0 -0.376 0.172 -0.5 0.388 -0.5Z" transform="translate(57.4 -1)" fill="#000000" data-prov="88fff9d9a3f4097be33105eff4f0664a" data-source-kind="1" data-glyph="noteheadBlack" data-class="notehead"/>
      <path d="M0.388 -0.5C0.744 -0.5 1.18 -0.172 1.18 0.168C1.18 0.372 1.02 0.5 0.792 0.5C0.352 0.5 0 0.176 0 -0.168C0 -0.376 0.172 -0.5 0.388 -0.5Z" transform="translate(60.6 -1)" fill="#000000" data-prov="1c0a15caddb0e912285270f67ff23a3b" data-source-kind="1" data-glyph="noteheadBlack" data-class="notehead"/>
      <path d="M0.388 -0.5C0.744 -0.5 1.18 -0.172 1.18 0.168C1.18 0.372 1.02 0.5 0.792 0.5C0.352 0.5 0 0.176 0 -0.168C0 -0.376 0.172 -0.5 0.388 -0.5Z" transform="translate(62.2 -1)" fill="#000000" data-prov="82e4c22515ed591ba37576873988586e" data-source-kind="1" data-glyph="noteheadBlack" data-class="notehead"/>
      <path d="M0.388 -0.5C0.744 -0.5 1.18 -0.172 1.18 0.168C1.18 0.372 1.02 0.5 0.792 0.5C0.352 0.5 0 0.176 0 -0.168C0 -0.376 0.172 -0.5 0.388 -0.5Z" transform="translate(63.8 -1)" fill="#000000" data-prov="6304bcb23912da87e33c77509f7985f4" data-source-kind="1" data-glyph="noteheadBlack" data-class="notehead"/>
      <path d="M0.388 -0.5C0.744 -0.5 1.18 -0.172 1.18 0.168C1.18 0.372 1.02 0.5 0.792 0.5C0.352 0.5 0 0.176 0 -0.168C0 -0.376 0.172 -0.5 0.388 -0.5Z" transform="translate(65.4 -1)" fill="#000000" data-prov="99878edbfc3bbb1e8eca463cccd584ce" data-source-kind="1" data-glyph="noteheadBlack" data-class="notehead"/>
      <path d="M0.388 -0.5C0.744 -0.5 1.18 -0.172 1.18 0.168C1.18 0.372 1.02 0.5 0.792 0.5C0.352 0.5 0 0.176 0 -0.168C0 -0.376 0.172 -0.5 0.388 -0.5Z" transform="translate(68.6 -1)" fill="#000000" data-prov="d10593c1a375a3b07eb107dae9e897b3" data-source-kind="1" data-glyph="noteheadBlack" data-class="notehead"/>
      <path d="M0.388 -0.5C0.744 -0.5 1.18 -0.172 1.18 0.168C1.18 0.372 1.02 0.5 0.792 0.5C0.352 0.5 0 0.176 0 -0.168C0 -0.376 0.172 -0.5 0.388 -0.5Z" transform="translate(70.2 -1)" fill="#000000" data-prov="ba9722cd8f95336b0804751c84983573" data-source-kind="1" data-glyph="noteheadBlack" data-class="notehead"/>
      <path d="M0.388 -0.5C0.744 -0.5 1.18 -0.172 1.18 0.168C1.18 0.372 1.02 0.5 0.792 0.5C0.352 0.5 0 0.176 0 -0.168C0 -0.376 0.172 -0.5 0.388 -0.5Z" transform="translate(71.8 -1)" fill="#000000" data-prov="103fdcd52932b1c8f5fab0036c2dd002" data-source-kind="1" data-glyph="noteheadBlack" data-class="notehead"/>
      <path d="M0.388 -0.5C0.744 -0.5 1.18 -0.172 1.18 0.168C1.18 0.372 1.02 0.5 0.792 0.5C0.352 0.5 0 0.176 0 -0.168C0 -0.376 0.172 -0.5 0.388 -0.5Z" transform="translate(73.4 -1)" fill="#000000" data-prov="fcd49faa62e91333932dbac75206c859" data-source-kind="1" data-glyph="noteheadBlack" data-class="notehead"/>
      <path d="M0.388 -0.5C0.744 -0.5 1.18 -0.172 1.18 0.168C1.18 0.372 1.02 0.5 0.792 0.5C0.352 0.5 0 0.176 0 -0.168C0 -0.376 0.172 -0.5 0.388 -0.5Z" transform="translate(75 -1)" fill="#000000" data-prov="cc13049cf24d89de78d5dcc3bed18d7f" data-source-kind="1" data-glyph="noteheadBlack" data-class="notehead"/>
      <path d="M0.388 -0.5C0.744 -0.5 1.18 -0.172 1.18 0.168C1.18 0.372 1.02 0.5 0.792 0.5C0.352 0.5 0 0.176 0 -0.168C0 -0.376 0.172 -0.5 0.388 -0.5Z" transform="translate(76.6 -1)" fill="#000000" data-prov="88a15f00dc6e06aaf9f2532f05f6197e" data-source-kind="1" data-glyph="noteheadBlack" data-class="notehead"/>
      <path d="M0.388 -0.5C0.744 -0.5 1.18 -0.172 1.18 0.168C1.18 0.372 1.02 0.5 0.792 0.5C0.352 0.5 0 0.176 0 -0.168C0 -0.376 0.172 -0.5 0.388 -0.5Z" transform="translate(78.2 -1)" fill="#000000" data-prov="cd16148313e9a4f391ab0cabfeb1ee4c" data-source-kind="1" data-glyph="noteheadBlack" data-class="notehead"/>
      <path d="M0.388 -0.5C0.744 -0.5 1.18 -0.172 1.18 0.168C1.18 0.372 1.02 0.5 0.792 0.5C0.352 0.5 0 0.176 0 -0.168C0 -0.376 0.172 -0.5 0.388 -0.5Z" transform="translate(79.8 -1)" fill="#000000" data-prov="df598a181d9acccffc346705fce5da9b" data-source-kind="1" data-glyph="noteheadBlack" data-class="notehead"/>
      <path d="M0.144 0V4H0V0Z" transform="translate(3 0)" fill="#000000" data-prov="867b15e7cfaeccccfe301517166fe106" data-source-kind="9" data-glyph="barlineSingle" data-class="barline"/>
      <path d="M0.144 0V4H0V0Z" transform="translate(11 0)" fill="#000000" data-prov="2d8913235b36cc0b1c41dc5238cba014" data-source-kind="9" data-glyph="barlineSingle" data-class="barline"/>
      <path d="M0.144 0V4H0V0Z" transform="translate(19 0)" fill="#000000" data-prov="b263edd8a4514fa237d4e7942c04be8c" data-source-kind="9" data-glyph="barlineSingle" data-class="barline"/>
      <path d="M0.144 0V4H0V0Z" transform="translate(27 0)" fill="#000000" data-prov="abc1bd57e0116cfc47c4f84f0c22b2e6" data-source-kind="9" data-glyph="barlineSingle" data-class="barline"/>
      <path d="M0.144 0V4H0V0Z" transform="translate(35 0)" fill="#000000" data-prov="9f811a0578b546d35393e29bb06afe9b" data-source-kind="9" data-glyph="barlineSingle" data-class="barline"/>
      <path d="M0.144 0V4H0V0Z" transform="translate(43 0)" fill="#000000" data-prov="7c62f742d0a60d8a6177a714ef9241af" data-source-kind="9" data-glyph="barlineSingle" data-class="barline"/>
      <path d="M0.144 0V4H0V0Z" transform="translate(51 0)" fill="#000000" data-prov="0b1e63cbd07616159ee70000e3c76056" data-source-kind="9" data-glyph="barlineSingle" data-class="barline"/>
      <path d="M0.144 0V4H0V0Z" transform="translate(59 0)" fill="#000000" data-prov="f21f4e337050d50f36f7d905196db794" data-source-kind="9" data-glyph="barlineSingle" data-class="barline"/>
      <path d="M0.144 0V4H0V0Z" transform="translate(67 0)" fill="#000000" data-prov="f4a3968aa56472207e4e921c44dfa1d7" data-source-kind="9" data-glyph="barlineSingle" data-class="barline"/>
      <path d="M0.144 0V4H0V0ZM0.912 4H0.412V0H0.912Z" transform="translate(82.9 0)" fill="#000000" data-prov="d99180b4838ec1269b3f4caee0201968" data-source-kind="9" data-glyph="barlineFinal" data-class="barline"/>
    </g>
  </g>
</svg>
