<?xml version="1.0" encoding="UTF-8"?>
<svg xmlns="http://www.w3.org/2000/svg" width="940.0001" height="205.8981" viewBox="0 0 94 20.5898">
  <!-- epiphany-render-svg: glyphs are genuine Bravura SMuFL outlines inlined as paths; geometry is the resolved layout verbatim, no engraving performed here; every glyph, stroke, and curve carries a data-prov trace to its score-graph source -->
  <g transform="translate(-5.5 -5.5006) scale(1 -1)">
    <g data-layer="0">
      <line x1="8.5599" y1="-12.8926" x2="8.5599" y2="-12.8926" stroke="#000000" stroke-width="0" data-prov="01550dc9d118134419219044f188e28a" data-source-kind="6" data-kind="stroke"/>
      <line x1="7.565" y1="-12.8926" x2="97.435" y2="-12.8926" stroke="#000000" stroke-width="0.13" data-prov="5235156954d3cdda987a3da1af222a55" data-source-kind="3" data-kind="stroke"/>
      <line x1="7.565" y1="-11.8926" x2="97.435" y2="-11.8926" stroke="#000000" stroke-width="0.13" data-prov="10cbe3e182e937b8e3d90a03397b2e97" data-source-kind="3" data-kind="stroke"/>
      <line x1="7.565" y1="-10.8926" x2="97.435" y2="-10.8926" stroke="#000000" stroke-width="0.13" data-prov="94825cd467fe6fb512d271e66b59674a" data-source-kind="3" data-kind="stroke"/>
      <line x1="7.565" y1="-9.8926" x2="97.435" y2="-9.8926" stroke="#000000" stroke-width="0.13" data-prov="bc2cd26cec8e4650eedcf04fbc91320f" data-source-kind="3" data-kind="stroke"/>
      <line x1="7.565" y1="-8.8926" x2="97.435" y2="-8.8926" stroke="#000000" stroke-width="0.13" data-prov="c46b9445a4c5ff909f50b13f9025c4a3" data-source-kind="3" data-kind="stroke"/>
      <line x1="8.5599" y1="-12.8926" x2="8.5599" y2="-12.8926" stroke="#000000" stroke-width="0" data-prov="fe116eb75ff697f9f2451c10c05349c6" data-source-kind="2" data-kind="stroke"/>
      <line x1="17.769" y1="-13.8926" x2="17.769" y2="-10.3926" stroke="#000000" stroke-width="0.12" data-prov="dbd573fbc0c21f9b07a8537f658b048c" data-source-kind="0" data-kind="stroke"/>
      <line x1="16.2883" y1="-13.8926" x2="18.069" y2="-13.8926" stroke="#000000" stroke-width="0.13" data-prov="07ffb45f25e59b0955bd4e248522b2ef" data-source-kind="1" data-kind="stroke"/>
      <line x1="21.4939" y1="-13.8926" x2="21.4939" y2="-10.3926" stroke="#000000" stroke-width="0.12" data-prov="276b6f72f2bcb818f84229b6833ce022" data-source-kind="0" data-kind="stroke"/>
      <line x1="20.0132" y1="-13.8926" x2="21.7939" y2="-13.8926" stroke="#000000" stroke-width="0.13" data-prov="3539af5cd23dc6ca259a35fef4aa45c2" data-source-kind="1" data-kind="stroke"/>
      <line x1="25.2188" y1="-13.8926" x2="25.2188" y2="-10.3926" stroke="#000000" stroke-width="0.12" data-prov="d1b0067ebb2b2b9115a77aaadc53bffe" data-source-kind="0" data-kind="stroke"/>
      <line x1="23.7381" y1="-13.8926" x2="25.5188" y2="-13.8926" stroke="#000000" stroke-width="0.13" data-prov="9b43d5d2a83ce1086364f6f3ac4b5ba2" data-source-kind="1" data-kind="stroke"/>
      <line x1="28.9437" y1="-13.8926" x2="28.9437" y2="-10.3926" stroke="#000000" stroke-width="0.12" data-prov="13303d184ca25b99835d71e21f3a96df" data-source-kind="0" data-kind="stroke"/>
      <line x1="27.463" y1="-13.8926" x2="29.2437" y2="-13.8926" stroke="#000000" stroke-width="0.13" data-prov="d6c7a9458a06532e1c7507e71363c0dd" data-source-kind="1" data-kind="stroke"/>
      <line x1="34.8168" y1="-13.8926" x2="34.8168" y2="-10.3926" stroke="#000000" stroke-width="0.12" data-prov="aa33134cf72cebda65d1b2b427230541" data-source-kind="0" data-kind="stroke"/>
      <line x1="33.3362" y1="-13.8926" x2="35.1168" y2="-13.8926" stroke="#000000" stroke-width="0.13" data-prov="20fbe0162b0bc4dd93e2c3e3da73bb83" data-source-kind="1" data-kind="stroke"/>
      <line x1="38.5417" y1="-13.8926" x2="38.5417" y2="-10.3926" stroke="#000000" stroke-width="0.12" data-prov="01d06ae931cf05983e4b17744108297b" data-source-kind="0" data-kind="stroke"/>
      <line x1="37.0611" y1="-13.8926" x2="38.8417" y2="-13.8926" stroke="#000000" stroke-width="0.13" data-prov="cd9abf9ed66ab876f68b9d88ce1e5199" data-source-kind="1" data-kind="stroke"/>
      <line x1="42.2666" y1="-13.8926" x2="42.2666" y2="-10.3926" stroke="#000000" stroke-width="0.12" data-prov="47c9ce76466974ecfabe4a9cafb75c3c" data-source-kind="0" data-kind="stroke"/>
      <line x1="40.7859" y1="-13.8926" x2="42.5666" y2="-13.8926" stroke="#000000" stroke-width="0.13" data-prov="7ade41165c11102f29e87cb09eb3f88f" data-source-kind="1" data-kind="stroke"/>
      <line x1="45.9915" y1="-13.8926" x2="45.9915" y2="-10.3926" stroke="#000000" stroke-width="0.12" data-prov="e6d1c0a44d13be2700ad4381e1d518fa" data-source-kind="0" data-kind="stroke"/>
      <line x1="44.5108" y1="-13.8926" x2="46.2915" y2="-13.8926" stroke="#000000" stroke-width="0.13" data-prov="32c2aa89808756c46e8b7afcfb2eb057" data-source-kind="1" data-kind="stroke"/>
      <line x1="51.8647" y1="-13.8926" x2="51.8647" y2="-10.3926" stroke="#000000" stroke-width="0.12" data-prov="370a65aab516f6792e49a1ed28bd5cd9" data-source-kind="0" data-kind="stroke"/>
      <line x1="50.384" y1="-13.8926" x2="52.1647" y2="-13.8926" stroke="#000000" stroke-width="0.13" data-prov="0a3ae3c155d29c21e266e663a8b1b214" data-source-kind="1" data-kind="stroke"/>
      <line x1="55.5896" y1="-13.8926" x2="55.5896" y2="-10.3926" stroke="#000000" stroke-width="0.12" data-prov="75b4bca159d5c28b10b2078bb457bb53" data-source-kind="0" data-kind="stroke"/>
      <line x1="54.1089" y1="-13.8926" x2="55.8896" y2="-13.8926" stroke="#000000" stroke-width="0.13" data-prov="c27e3e835224dc54cef9b36818099cd0" data-source-kind="1" data-kind="stroke"/>
      <line x1="59.3144" y1="-13.8926" x2="59.3144" y2="-10.3926" stroke="#000000" stroke-width="0.12" data-prov="c4531390972e55a43af2bd9f85e3c250" data-source-kind="0" data-kind="stroke"/>
      <line x1="57.8338" y1="-13.8926" x2="59.6144" y2="-13.8926" stroke="#000000" stroke-width="0.13" data-prov="4b43990bc25bf4afffda3e2a7d4dcab7" data-source-kind="1" data-kind="stroke"/>
      <line x1="63.0393" y1="-13.8926" x2="63.0393" y2="-10.3926" stroke="#000000" stroke-width="0.12" data-prov="888c6ef019fc4b0fc714672a4444c60c" data-source-kind="0" data-kind="stroke"/>
      <line x1="61.5587" y1="-13.8926" x2="63.3393" y2="-13.8926" stroke="#000000" stroke-width="0.13" data-prov="8e120598410629bb86883f318071a6b5" data-source-kind="1" data-kind="stroke"/>
      <line x1="68.9125" y1="-13.8926" x2="68.9125" y2="-10.3926" stroke="#000000" stroke-width="0.12" data-prov="6c70ad9006ed8fbb104d77eba3f2dbcb" data-source-kind="0" data-kind="stroke"/>
      <line x1="67.4319" y1="-13.8926" x2="69.2125" y2="-13.8926" stroke="#000000" stroke-width="0.13" data-prov="6d2724bb96160f831b4e987ce6b4349a" data-source-kind="1" data-kind="stroke"/>
      <line x1="72.6374" y1="-13.8926" x2="72.6374" y2="-10.3926" stroke="#000000" stroke-width="0.12" data-prov="debe82da2c34817a871d8a4cc5cc3fdd" data-source-kind="0" data-kind="stroke"/>
      <line x1="71.1567" y1="-13.8926" x2="72.9374" y2="-13.8926" stroke="#000000" stroke-width="0.13" data-prov="7a9f84c8590c7e8156fd929e35153cf8" data-source-kind="1" data-kind="stroke"/>
      <line x1="76.3623" y1="-13.8926" x2="76.3623" y2="-10.3926" stroke="#000000" stroke-width="0.12" data-prov="7b524c2e9e5657b68fd1a81337887c2e" data-source-kind="0" data-kind="stroke"/>
      <line x1="74.8816" y1="-13.8926" x2="76.6623" y2="-13.8926" stroke="#000000" stroke-width="0.13" data-prov="c4a9602f838e0ea74a9fe68da12baff2" data-source-kind="1" data-kind="stroke"/>
      <line x1="80.0872" y1="-13.8926" x2="80.0872" y2="-10.3926" stroke="#000000" stroke-width="0.12" data-prov="cb31fbbd4a3e3eb17ed06e65f40589e5" data-source-kind="0" data-kind="stroke"/>
      <line x1="78.6065" y1="-13.8926" x2="80.3872" y2="-13.8926" stroke="#000000" stroke-width="0.13" data-prov="76860486e62be8520184bb3e8c284d94" data-source-kind="1" data-kind="stroke"/>
      <line x1="85.9603" y1="-13.8926" x2="85.9603" y2="-10.3926" stroke="#000000" stroke-width="0.12" data-prov="bc1cc9bede7fc3c72827cfbf184cdb7e" data-source-kind="0" data-kind="stroke"/>
      <line x1="84.4797" y1="-13.8926" x2="86.2603" y2="-13.8926" stroke="#000000" stroke-width="0.13" data-prov="a3fd2ae47f432e61881cb1e44a7108e6" data-source-kind="1" data-kind="stroke"/>
      <line x1="89.6852" y1="-13.8926" x2="89.6852" y2="-10.3926" stroke="#000000" stroke-width="0.12" data-prov="95891bc2b58231a1618b5d422e6131b0" data-source-kind="0" data-kind="stroke"/>
      <line x1="88.2046" y1="-13.8926" x2="89.9852" y2="-13.8926" stroke="#000000" stroke-width="0.13" data-prov="a9e2ee2be83c0a4978db517bf182efe9" data-source-kind="1" data-kind="stroke"/>
      <line x1="93.4101" y1="-13.8926" x2="93.4101" y2="-10.3926" stroke="#000000" stroke-width="0.12" data-prov="ed21002861831422bdbb36e8f981d2a9" data-source-kind="0" data-kind="stroke"/>
      <line x1="91.9295" y1="-13.8926" x2="93.7101" y2="-13.8926" stroke="#000000" stroke-width="0.13" data-prov="2bac60a88ddddcf403dd6edfb67b5bb0" data-source-kind="1" data-kind="stroke"/>
      <line x1="97.135" y1="-13.8926" x2="97.135" y2="-10.3926" stroke="#000000" stroke-width="0.12" data-prov="e49748251746a6dbdf15aa8dd983e6e7" data-source-kind="0" data-kind="stroke"/>
      <line x1="95.6543" y1="-13.8926" x2="97.435" y2="-13.8926" stroke="#000000" stroke-width="0.13" data-prov="a592bc951f4afa64726aa30ccdd6ddfa" data-source-kind="1" data-kind="stroke"/>
      <line x1="10.2457" y1="-23.5904" x2="10.2457" y2="-20.0904" stroke="#000000" stroke-width="0.12" data-prov="8d2938a01abfe451991829fbde6d2b94" data-source-kind="0" data-kind="stroke"/>
      <line x1="8.765" y1="-23.5904" x2="10.5457" y2="-23.5904" stroke="#000000" stroke-width="0.13" data-prov="c73f1aad686621adde07e7fe7b160ad7" data-source-kind="1" data-kind="stroke"/>
      <line x1="12.3263" y1="-23.5904" x2="12.3263" y2="-20.0904" stroke="#000000" stroke-width="0.12" data-prov="88366a6edcce03db41d39d08b2616742" data-source-kind="0" data-kind="stroke"/>
      <line x1="10.8457" y1="-23.5904" x2="12.6263" y2="-23.5904" stroke="#000000" stroke-width="0.13" data-prov="4e052448582a8fdc672f38b02dc205e1" data-source-kind="1" data-kind="stroke"/>
      <line x1="14.407" y1="-23.5904" x2="14.407" y2="-20.0904" stroke="#000000" stroke-width="0.12" data-prov="77a10c7862f0ffce98d309bb71ce675f" data-source-kind="0" data-kind="stroke"/>
      <line x1="12.9263" y1="-23.5904" x2="14.707" y2="-23.5904" stroke="#000000" stroke-width="0.13" data-prov="68c691f2336e5a322116641b9f2f7054" data-source-kind="1" data-kind="stroke"/>
      <line x1="16.4876" y1="-23.5904" x2="16.4876" y2="-20.0904" stroke="#000000" stroke-width="0.12" data-prov="cfa457e70519a1826f321a56cb3fd03b" data-source-kind="0" data-kind="stroke"/>
      <line x1="15.007" y1="-23.5904" x2="16.7876" y2="-23.5904" stroke="#000000" stroke-width="0.13" data-prov="3c3f0d6b5ab00374d7628cd6f9876bc9" data-source-kind="1" data-kind="stroke"/>
      <line x1="19.7683" y1="-23.5904" x2="19.7683" y2="-20.0904" stroke="#000000" stroke-width="0.12" data-prov="273d04eeece605789035a29d80023c2c" data-source-kind="0" data-kind="stroke"/>
      <line x1="18.2876" y1="-23.5904" x2="20.0683" y2="-23.5904" stroke="#000000" stroke-width="0.13" data-prov="9ec226573f8ea2320fc444c562163ddb" data-source-kind="1" data-kind="stroke"/>
      <line x1="21.849" y1="-23.5904" x2="21.849" y2="-20.0904" stroke="#000000" stroke-width="0.12" data-prov="a23b09fda2784b566bf1de48e89a2baa" data-source-kind="0" data-kind="stroke"/>
      <line x1="20.3683" y1="-23.5904" x2="22.149" y2="-23.5904" stroke="#000000" stroke-width="0.13" data-prov="9e3345d5dddffbb9cf263a1708fc2589" data-source-kind="1" data-kind="stroke"/>
      <line x1="23.9296" y1="-23.5904" x2="23.9296" y2="-20.0904" stroke="#000000" stroke-width="0.12" data-prov="edf9ca4611cfc17faace6241cae3b73d" data-source-kind="0" data-kind="stroke"/>
      <line x1="22.449" y1="-23.5904" x2="24.2296" y2="-23.5904" stroke="#000000" stroke-width="0.13" data-prov="ea06a5b83026202fbe3eed55ca3680c9" data-source-kind="1" data-kind="stroke"/>
      <line x1="26.0103" y1="-23.5904" x2="26.0103" y2="-20.0904" stroke="#000000" stroke-width="0.12" data-prov="f1e3c0367633266d5f188e5bd6d98ad4" data-source-kind="0" data-kind="stroke"/>
      <line x1="24.5296" y1="-23.5904" x2="26.3103" y2="-23.5904" stroke="#000000" stroke-width="0.13" data-prov="b8d324f0620ebb59f66346b61a4d214e" data-source-kind="1" data-kind="stroke"/>
      <line x1="29.291" y1="-23.5904" x2="29.291" y2="-20.0904" stroke="#000000" stroke-width="0.12" data-prov="2bf824905032462ee8c9988b780feabf" data-source-kind="0" data-kind="stroke"/>
      <line x1="27.8103" y1="-23.5904" x2="29.591" y2="-23.5904" stroke="#000000" stroke-width="0.13" data-prov="579f0f80918268f1ba03890d14832b56" data-source-kind="1" data-kind="stroke"/>
      <line x1="31.3716" y1="-23.5904" x2="31.3716" y2="-20.0904" stroke="#000000" stroke-width="0.12" data-prov="08a65aebf8baaded74feb3ec7cc36d18" data-source-kind="0" data-kind="stroke"/>
      <line x1="29.891" y1="-23.5904" x2="31.6716" y2="-23.5904" stroke="#000000" stroke-width="0.13" data-prov="f04f04c436808c53ab1c2b169d7f5a33" data-source-kind="1" data-kind="stroke"/>
      <line x1="33.4523" y1="-23.5904" x2="33.4523" y2="-20.0904" stroke="#000000" stroke-width="0.12" data-prov="d155779804ad660f4466745153872349" data-source-kind="0" data-kind="stroke"/>
      <line x1="31.9716" y1="-23.5904" x2="33.7523" y2="-23.5904" stroke="#000000" stroke-width="0.13" data-prov="3b9174fe7361dbfc454fbe17b9ec81b1" data-source-kind="1" data-kind="stroke"/>
      <line x1="35.533" y1="-23.5904" x2="35.533" y2="-20.0904" stroke="#000000" stroke-width="0.12" data-prov="af73177552d5fa95b746caf62d000623" data-source-kind="0" data-kind="stroke"/>
      <line x1="34.0523" y1="-23.5904" x2="35.833" y2="-23.5904" stroke="#000000" stroke-width="0.13" data-prov="46e6eac9f03c1e09a15cb0bb07628570" data-source-kind="1" data-kind="stroke"/>
      <line x1="38.8136" y1="-23.5904" x2="38.8136" y2="-20.0904" stroke="#000000" stroke-width="0.12" data-prov="7c839e4fb5f2522c8fde3b48577eafae" data-source-kind="0" data-kind="stroke"/>
      <line x1="37.333" y1="-23.5904" x2="39.1136" y2="-23.5904" stroke="#000000" stroke-width="0.13" data-prov="0e4ec9f37979b06c54f0e2d499df5bf1" data-source-kind="1" data-kind="stroke"/>
      <line x1="40.8943" y1="-23.5904" x2="40.8943" y2="-20.0904" stroke="#000000" stroke-width="0.12" data-prov="0c8e0b8170c827494e606d4541ce2c89" data-source-kind="0" data-kind="stroke"/>
      <line x1="39.4136" y1="-23.5904" x2="41.1943" y2="-23.5904" stroke="#000000" stroke-width="0.13" data-prov="61f1ed037baf82bf6594769a9205df07" data-source-kind="1" data-kind="stroke"/>
      <line x1="42.975" y1="-23.5904" x2="42.975" y2="-20.0904" stroke="#000000" stroke-width="0.12" data-prov="42480ffc14ad129d8dec456e7bad317c" data-source-kind="0" data-kind="stroke"/>
      <line x1="41.4943" y1="-23.5904" x2="43.275" y2="-23.5904" stroke="#000000" stroke-width="0.13" data-prov="adc82c9de5d3ed333e335c32f7690a6b" data-source-kind="1" data-kind="stroke"/>
      <line x1="45.0557" y1="-23.5904" x2="45.0557" y2="-20.0904" stroke="#000000" stroke-width="0.12" data-prov="0f408610c63793003f04e3af5a03493f" data-source-kind="0" data-kind="stroke"/>
      <line x1="43.575" y1="-23.5904" x2="45.3557" y2="-23.5904" stroke="#000000" stroke-width="0.13" data-prov="1dee0e17b4b9167cda8e51b45e2ab47c" data-source-kind="1" data-kind="stroke"/>
      <line x1="47.1363" y1="-23.5904" x2="47.1363" y2="-20.0904" stroke="#000000" stroke-width="0.12" data-prov="99d50b32a7d1eac1019c14132a834144" data-source-kind="0" data-kind="stroke"/>
      <line x1="45.6557" y1="-23.5904" x2="47.4363" y2="-23.5904" stroke="#000000" stroke-width="0.13" data-prov="c33f0e929fa3ea4230c07aca80f60c04" data-source-kind="1" data-kind="stroke"/>
      <line x1="49.217" y1="-23.5904" x2="49.217" y2="-20.0904" stroke="#000000" stroke-width="0.12" data-prov="572e96450f21b18771e510c6c41444dc" data-source-kind="0" data-kind="stroke"/>
      <line x1="47.7363" y1="-23.5904" x2="49.517" y2="-23.5904" stroke="#000000" stroke-width="0.13" data-prov="67463b29bfb160641501f497f6134aa6" data-source-kind="1" data-kind="stroke"/>
      <line x1="51.2977" y1="-23.5904" x2="51.2977" y2="-20.0904" stroke="#000000" stroke-width="0.12" data-prov="68935c410dbe357c3f80b01c6e6d3cb1" data-source-kind="0" data-kind="stroke"/>
      <line x1="49.817" y1="-23.5904" x2="51.5977" y2="-23.5904" stroke="#000000" stroke-width="0.13" data-prov="75f41055f9e23911ca51158dab6488df" data-source-kind="1" data-kind="stroke"/>
      <line x1="53.3783" y1="-23.5904" x2="53.3783" y2="-20.0904" stroke="#000000" stroke-width="0.12" data-prov="9e9ba65603d31963bdc6d55dfacc5eba" data-source-kind="0" data-kind="stroke"/>
      <line x1="51.8977" y1="-23.5904" x2="53.6783" y2="-23.5904" stroke="#000000" stroke-width="0.13" data-prov="66a37f88caecfe799ec34469d2302afd" data-source-kind="1" data-kind="stroke"/>
      <line x1="8.5599" y1="-12.8926" x2="8.5599" y2="-12.8926" stroke="#000000" stroke-width="0" data-prov="40a9a55985c8bf8b1eb66b6d8c8e7b7a" data-source-kind="12" data-kind="stroke"/>
      <line x1="8.5599" y1="-12.8926" x2="8.5599" y2="-12.8926" stroke="#000000" stroke-width="0" data-prov="10eb9773d25f0d7d64f92b36f88e5b38" data-source-kind="14" data-kind="stroke"/>
      <line x1="8.5599" y1="-12.8926" x2="8.5599" y2="-12.8926" stroke="#000000" stroke-width="0" data-prov="86a982398112115027c54222505dd143" data-source-kind="15" data-kind="stroke"/>
      <line x1="8.5599" y1="-12.8926" x2="8.5599" y2="-12.8926" stroke="#000000" stroke-width="0" data-prov="c183669ac91f35eb7a0040b48fde85ab" data-source-kind="25" data-kind="stroke"/>
      <line x1="7.565" y1="-22.5904" x2="54.2656" y2="-22.5904" stroke="#000000" stroke-width="0.13" data-prov="e5c54b1ebf58ed5292d1b98f73ad084e" data-source-kind="3" data-kind="stroke"/>
      <line x1="7.565" y1="-21.5904" x2="54.2656" y2="-21.5904" stroke="#000000" stroke-width="0.13" data-prov="9ee2d26461a7bc2f28eaf20e07b55ee0" data-source-kind="3" data-kind="stroke"/>
      <line x1="7.565" y1="-20.5904" x2="54.2656" y2="-20.5904" stroke="#000000" stroke-width="0.13" data-prov="c5feea54a17beefce1088337f84e39fc" data-source-kind="3" data-kind="stroke"/>
      <line x1="7.565" y1="-19.5904" x2="54.2656" y2="-19.5904" stroke="#000000" stroke-width="0.13" data-prov="688349b3e25cac395b2dcca6e297dcfe" data-source-kind="3" data-kind="stroke"/>
      <line x1="7.565" y1="-18.5904" x2="54.2656" y2="-18.5904" stroke="#000000" stroke-width="0.13" data-prov="c146782303bbe4c29c6228235090facf" data-source-kind="3" data-kind="stroke"/>
      <path d="M1.504 1.66C1.496 1.708 1.504 1.712 1.528 1.736C1.96 2.14 2.288 2.648 2.288 3.26C2.288 3.608 2.192 3.952 2.028 4.192C1.968 4.28 1.864 4.392 1.82 4.392C1.764 4.392 1.64 4.288 1.56 4.2C1.264 3.872 1.168 3.372 1.168 2.956C1.168 2.724 1.196 2.464 1.224 2.3C1.232 2.252 1.236 2.244 1.188 2.204C0.612 1.728 0 1.156 0 0.348C0 -0.348 0.476 -1.008 1.456 -1.008C1.548 -1.008 1.652 -1 1.732 -0.984C1.776 -0.976 1.784 -0.972 1.792 -1.02C1.84 -1.288 1.9 -1.636 1.9 -1.824C1.9 -2.416 1.5 -2.488 1.264 -2.488C1.048 -2.488 0.944 -2.424 0.944 -2.372C0.944 -2.344 0.98 -2.332 1.072 -2.304C1.196 -2.268 1.34 -2.16 1.34 -1.928C1.34 -1.708 1.2 -1.52 0.956 -1.52C0.688 -1.52 0.528 -1.732 0.528 -1.98C0.528 -2.24 0.684 -2.632 1.288 -2.632C1.556 -2.632 2.076 -2.512 2.076 -1.832C2.076 -1.604 2.004 -1.224 1.96 -0.976C1.952 -0.928 1.956 -0.932 2.012 -0.908C2.416 -0.748 2.684 -0.408 2.684 0.044C2.684 0.556 2.308 1.008 1.72 1.008C1.616 1.008 1.616 1.008 1.604 1.08ZM1.88 3.772C2.012 3.772 2.12 3.664 2.12 3.444C2.12 3 1.74 2.64 1.424 2.364C1.396 2.34 1.38 2.344 1.372 2.396C1.356 2.5 1.348 2.636 1.348 2.764C1.348 3.388 1.636 3.772 1.88 3.772ZM1.444 1.048C1.456 0.972 1.456 0.976 1.384 0.952C1.032 0.832 0.804 0.516 0.804 0.176C0.804 -0.184 0.992 -0.44 1.264 -0.532C1.296 -0.544 1.344 -0.556 1.372 -0.556C1.404 -0.556 1.42 -0.536 1.42 -0.512C1.42 -0.484 1.388 -0.472 1.36 -0.46C1.192 -0.388 1.072 -0.216 1.072 -0.032C1.072 0.196 1.228 0.368 1.472 0.436C1.536 0.452 1.544 0.448 1.552 0.404L1.752 -0.788C1.76 -0.832 1.756 -0.832 1.696 -0.844C1.632 -0.856 1.552 -0.864 1.472 -0.864C0.772 -0.864 0.32 -0.476 0.32 0.08C0.32 0.316 0.36 0.632 0.692 1.008C0.932 1.276 1.116 1.424 1.304 1.576C1.344 1.608 1.352 1.604 1.36 1.56ZM1.72 0.412C1.712 0.46 1.716 0.472 1.764 0.468C2.088 0.44 2.356 0.168 2.356 -0.184C2.356 -0.436 2.204 -0.64 1.98 -0.752C1.932 -0.776 1.924 -0.776 1.916 -0.728Z" transform="translate(8.5599 -11.8926)" fill="#000000" data-prov="2bc09f9490decea3e13f24459f1b64f4" data-source-kind="4" data-glyph="gClef" data-class="clef"/>
      <path d="M0.388 -0.5C0.744 -0.5 1.18 -0.172 1.18 0.168C1.18 0.372 1.02 0.5 0.792 0.5C0.352 0.5 0 0.176 0 -0.168C0 -0.376 0.172 -0.5 0.388 -0.5Z" transform="translate(16.5883 -13.8926)" fill="#000000" data-prov="870b54f8730bed8251f4f891a3c4b233" data-source-kind="1" data-glyph="noteheadBlack" data-class="notehead"/>
      <path d="M0.388 -0.5C0.744 -0.5 1.18 -0.172 1.18 0.168C1.18 0.372 1.02 0.5 0.792 0.5C0.352 0.5 0 0.176 0 -0.168C0 -0.376 0.172 -0.5 0.388 -0.5Z" transform="translate(20.3132 -13.8926)" fill="#000000" data-prov="5833135b23eaf581bccad90222f64e7e" data-source-kind="1" data-glyph="noteheadBlack" data-class="notehead"/>
      <path d="M0.388 -0.5C0.744 -0.5 1.18 -0.172 1.18 0.168C1.18 0.372 1.02 0.5 0.792 0.5C0.352 0.5 0 0.176 0 -0.168C0 -0.376 0.172 -0.5 0.388 -0.5Z" transform="translate(24.0381 -13.8926)" fill="#000000" data-prov="3c653d764b31b22273540a079363370c" data-source-kind="1" data-glyph="noteheadBlack" data-class="notehead"/>
      <path d="M0.388 -0.5C0.744 -0.5 1.18 -0.172 1.18 0.168C1.18 0.372 1.02 0.5 0.792 0.5C0.352 0.5 0 0.176 0 -0.168C0 -0.376 0.172 -0.5 0.388 -0.5Z" transform="translate(27.763 -13.8926)" fill="#000000" data-prov="dfd195901678557bdc1f1351634d2b68" data-source-kind="1" data-glyph="noteheadBlack" data-class="notehead"/>
      <path d="M0.388 -0.5C0.744 -0.5 1.18 -0.172 1.18 0.168C1.18 0.372 1.02 0.5 0.792 0.5C0.352 0.5 0 0.176 0 -0.168C0 -0.376 0.172 -0.5 0.388 -0.5Z" transform="translate(33.6362 -13.8926)" fill="#000000" data-prov="99d206152de1651afeef963c42d7984f" data-source-kind="1" data-glyph="noteheadBlack" data-class="notehead"/>
      <path d="M0.388 -0.5C0.744 -0.5 1.18 -0.172 1.18 0.168C1.18 0.372 1.02 0.5 0.792 0.5C0.352 0.5 0 0.176 0 -0.168C0 -0.376 0.172 -0.5 0.388 -0.5Z" transform="translate(37.3611 -13.8926)" fill="#000000" data-prov="1340dc8c93d5925410da02d683dd5916" data-source-kind="1" data-glyph="noteheadBlack" data-class="notehead"/>
      <path d="M0.388 -0.5C0.744 -0.5 1.18 -0.172 1.18 0.168C1.18 0.372 1.02 0.5 0.792 0.5C0.352 0.5 0 0.176 0 -0.168C0 -0.376 0.172 -0.5 0.388 -0.5Z" transform="translate(41.086 -13.8926)" fill="#000000" data-prov="d9b7e874516d265e3c165a16887a22bd" data-source-kind="1" data-glyph="noteheadBlack" data-class="notehead"/>
      <path d="M0.388 -0.5C0.744 -0.5 1.18 -0.172 1.18 0.168C1.18 0.372 1.02 0.5 0.792 0.5C0.352 0.5 0 0.176 0 -0.168C0 -0.376 0.172 -0.5 0.388 -0.5Z" transform="translate(44.8108 -13.8926)" fill="#000000" data-prov="12ef29aff1cc56481133aec42c0d1d35" data-source-kind="1" data-glyph="noteheadBlack" data-class="notehead"/>
      <path d="M0.388 -0.5C0.744 -0.5 1.18 -0.172 1.18 0.168C1.18 0.372 1.02 0.5 0.792 0.5C0.352 0.5 0 0.176 0 -0.168C0 -0.376 0.172 -0.5 0.388 -0.5Z" transform="translate(50.684 -13.8926)" fill="#000000" data-prov="6f2586548ccd7de6800f74edd852d03b" data-source-kind="1" data-glyph="noteheadBlack" data-class="notehead"/>
      <path d="M0.388 -0.5C0.744 -0.5 1.18 -0.172 1.18 0.168C1.18 0.372 1.02 0.5 0.792 0.5C0.352 0.5 0 0.176 0 -0.168C0 -0.376 0.172 -0.5 0.388 -0.5Z" transform="translate(54.4089 -13.8926)" fill="#000000" data-prov="6cd2fcd32ca7d1441b6534c025d7ae93" data-source-kind="1" data-glyph="noteheadBlack" data-class="notehead"/>
      <path d="M0.388 -0.5C0.744 -0.5 1.18 -0.172 1.18 0.168C1.18 0.372 1.02 0.5 0.792 0.5C0.352 0.5 0 0.176 0 -0.168C0 -0.376 0.172 -0.5 0.388 -0.5Z" transform="translate(58.1338 -13.8926)" fill="#000000" data-prov="e71f03f7d3d50a64ea72ce4bcdffb03e" data-source-kind="1" data-glyph="noteheadBlack" data-class="notehead"/>
      <path d="M0.388 -0.5C0.744 -0.5 1.18 -0.172 1.18 0.168C1.18 0.372 1.02 0.5 0.792 0.5C0.352 0.5 0 0.176 0 -0.168C0 -0.376 0.172 -0.5 0.388 -0.5Z" transform="translate(61.8587 -13.8926)" fill="#000000" data-prov="0227904e88f6312904444c17ae540b57" data-source-kind="1" data-glyph="noteheadBlack" data-class="notehead"/>
      <path d="M0.388 -0.5C0.744 -0.5 1.18 -0.172 1.18 0.168C1.18 0.372 1.02 0.5 0.792 0.5C0.352 0.5 0 0.176 0 -0.168C0 -0.376 0.172 -0.5 0.388 -0.5Z" transform="translate(67.7318 -13.8926)" fill="#000000" data-prov="6cce2821ccbb4f5769708cb9ca3c38a7" data-source-kind="1" data-glyph="noteheadBlack" data-class="notehead"/>
      <path d="M0.388 -0.5C0.744 -0.5 1.18 -0.172 1.18 0.168C1.18 0.372 1.02 0.5 0.792 0.5C0.352 0.5 0 0.176 0 -0.168C0 -0.376 0.172 -0.5 0.388 -0.5Z" transform="translate(71.4567 -13.8926)" fill="#000000" data-prov="9952a70d5e0f9911d93466e83edc252e" data-source-kind="1" data-glyph="noteheadBlack" data-class="notehead"/>
      <path d="M0.388 -0.5C0.744 -0.5 1.18 -0.172 1.18 0.168C1.18 0.372 1.02 0.5 0.792 0.5C0.352 0.5 0 0.176 0 -0.168C0 -0.376 0.172 -0.5 0.388 -0.5Z" transform="translate(75.1816 -13.8926)" fill="#000000" data-prov="1ead59d59c0c7cec46071003e7741905" data-source-kind="1" data-glyph="noteheadBlack" data-class="notehead"/>
      <path d="M0.388 -0.5C0.744 -0.5 1.18 -0.172 1.18 0.168C1.18 0.372 1.02 0.5 0.792 0.5C0.352 0.5 0 0.176 0 -0.168C0 -0.376 0.172 -0.5 0.388 -0.5Z" transform="translate(78.9065 -13.8926)" fill="#000000" data-prov="4b82f873de97ed4fa80748acbf368585" data-source-kind="1" data-glyph="noteheadBlack" data-class="notehead"/>
      <path d="M0.388 -0.5C0.744 -0.5 1.18 -0.172 1.18 0.168C1.18 0.372 1.02 0.5 0.792 0.5C0.352 0.5 0 0.176 0 -0.168C0 -0.376 0.172 -0.5 0.388 -0.5Z" transform="translate(84.7797 -13.8926)" fill="#000000" data-prov="a26098a444bb635ce82ff700f48491ed" data-source-kind="1" data-glyph="noteheadBlack" data-class="notehead"/>
      <path d="M0.388 -0.5C0.744 -0.5 1.18 -0.172 1.18 0.168C1.18 0.372 1.02 0.5 0.792 0.5C0.352 0.5 0 0.176 0 -0.168C0 -0.376 0.172 -0.5 0.388 -0.5Z" transform="translate(88.5046 -13.8926)" fill="#000000" data-prov="460c0831f9fd8de9b01a3a4bac641c8e" data-source-kind="1" data-glyph="noteheadBlack" data-class="notehead"/>
      <path d="M0.388 -0.5C0.744 -0.5 1.18 -0.172 1.18 0.168C1.18 0.372 1.02 0.5 0.792 0.5C0.352 0.5 0 0.176 0 -0.168C0 -0.376 0.172 -0.5 0.388 -0.5Z" transform="translate(92.2295 -13.8926)" fill="#000000" data-prov="50dc15968bfd55c7637d0dde7c2f7bb3" data-source-kind="1" data-glyph="noteheadBlack" data-class="notehead"/>
      <path d="M0.388 -0.5C0.744 -0.5 1.18 -0.172 1.18 0.168C1.18 0.372 1.02 0.5 0.792 0.5C0.352 0.5 0 0.176 0 -0.168C0 -0.376 0.172 -0.5 0.388 -0.5Z" transform="translate(95.9543 -13.8926)" fill="#000000" data-prov="d095c952d8865af497a68b9fb543c15e" data-source-kind="1" data-glyph="noteheadBlack" data-class="notehead"/>
      <path d="M0.388 -0.5C0.744 -0.5 1.18 -0.172 1.18 0.168C1.18 0.372 1.02 0.5 0.792 0.5C0.352 0.5 0 0.176 0 -0.168C0 -0.376 0.172 -0.5 0.388 -0.5Z" transform="translate(9.065 -23.5904)" fill="#000000" data-prov="1e4cb41d3c7556e314182c82b7790bef" data-source-kind="1" data-glyph="noteheadBlack" data-class="notehead"/>
      <path d="M0.388 -0.5C0.744 -0.5 1.18 -0.172 1.18 0.168C1.18 0.372 1.02 0.5 0.792 0.5C0.352 0.5 0 0.176 0 -0.168C0 -0.376 0.172 -0.5 0.388 -0.5Z" transform="translate(11.1457 -23.5904)" fill="#000000" data-prov="9645397274cb84055aeba5639f8b06a5" data-source-kind="1" data-glyph="noteheadBlack" data-class="notehead"/>
      <path d="M0.388 -0.5C0.744 -0.5 1.18 -0.172 1.18 0.168C1.18 0.372 1.02 0.5 0.792 0.5C0.352 0.5 0 0.176 0 -0.168C0 -0.376 0.172 -0.5 0.388 -0.5Z" transform="translate(13.2263 -23.5904)" fill="#000000" data-prov="9578182658c00300531491532d13f66a" data-source-kind="1" data-glyph="noteheadBlack" data-class="notehead"/>
      <path d="M0.388 -0.5C0.744 -0.5 1.18 -0.172 1.18 0.168C1.18 0.372 1.02 0.5 0.792 0.5C0.352 0.5 0 0.176 0 -0.168C0 -0.376 0.172 -0.5 0.388 -0.5Z" transform="translate(15.307 -23.5904)" fill="#000000" data-prov="0a4dcf79021a9ba0366091e34fab456c" data-source-kind="1" data-glyph="noteheadBlack" data-class="notehead"/>
      <path d="M0.388 -0.5C0.744 -0.5 1.18 -0.172 1.18 0.168C1.18 0.372 1.02 0.5 0.792 0.5C0.352 0.5 0 0.176 0 -0.168C0 -0.376 0.172 -0.5 0.388 -0.5Z" transform="translate(18.5876 -23.5904)" fill="#000000" data-prov="4b3905877c48341998d76f07cdb9eff5" data-source-kind="1" data-glyph="noteheadBlack" data-class="notehead"/>
      <path d="M0.388 -0.5C0.744 -0.5 1.18 -0.172 1.18 0.168C1.18 0.372 1.02 0.5 0.792 0.5C0.352 0.5 0 0.176 0 -0.168C0 -0.376 0.172 -0.5 0.388 -0.5Z" transform="translate(20.6683 -23.5904)" fill="#000000" data-prov="4582d540c93386289e704713ab2deeeb" data-source-kind="1" data-glyph="noteheadBlack" data-class="notehead"/>
      <path d="M0.388 -0.5C0.744 -0.5 1.18 -0.172 1.18 0.168C1.18 0.372 1.02 0.5 0.792 0.5C0.352 0.5 0 0.176 0 -0.168C0 -0.376 0.172 -0.5 0.388 -0.5Z" transform="translate(22.749 -23.5904)" fill="#000000" data-prov="b6d88aa94cc5462fed11ef21a9b9d6df" data-source-kind="1" data-glyph="noteheadBlack" data-class="notehead"/>
      <path d="M0.388 -0.5C0.744 -0.5 1.18 -0.172 1.18 0.168C1.18 0.372 1.02 0.5 0.792 0.5C0.352 0.5 0 0.176 0 -0.168C0 -0.376 0.172 -0.5 0.388 -0.5Z" transform="translate(24.8296 -23.5904)" fill="#000000" data-prov="88fff9d9a3f4097be33105eff4f0664a" data-source-kind="1" data-glyph="noteheadBlack" data-class="notehead"/>
      <path d="M0.388 -0.5C0.744 -0.5 1.18 -0.172 1.18 0.168C1.18 0.372 1.02 0.5 0.792 0.5C0.352 0.5 0 0.176 0 -0.168C0 -0.376 0.172 -0.5 0.388 -0.5Z" transform="translate(28.1103 -23.5904)" fill="#000000" data-prov="1c0a15caddb0e912285270f67ff23a3b" data-source-kind="1" data-glyph="noteheadBlack" data-class="notehead"/>
      <path d="M0.388 -0.5C0.744 -0.5 1.18 -0.172 1.18 0.168C1.18 0.372 1.02 0.5 0.792 0.5C0.352 0.5 0 0.176 0 -0.168C0 -0.376 0.172 -0.5 0.388 -0.5Z" transform="translate(30.191 -23.5904)" fill="#000000" data-prov="82e4c22515ed591ba37576873988586e" data-source-kind="1" data-glyph="noteheadBlack" data-class="notehead"/>
      <path d="M0.388 -0.5C0.744 -0.5 1.18 -0.172 1.18 0.168C1.18 0.372 1.02 0.5 0.792 0.5C0.352 0.5 0 0.176 0 -0.168C0 -0.376 0.172 -0.5 0.388 -0.5Z" transform="translate(32.2716 -23.5904)" fill="#000000" data-prov="6304bcb23912da87e33c77509f7985f4" data-source-kind="1" data-glyph="noteheadBlack" data-class="notehead"/>
      <path d="M0.388 -0.5C0.744 -0.5 1.18 -0.172 1.18 0.168C1.18 0.372 1.02 0.5 0.792 0.5C0.352 0.5 0 0.176 0 -0.168C0 -0.376 0.172 -0.5 0.388 -0.5Z" transform="translate(34.3523 -23.5904)" fill="#000000" data-prov="99878edbfc3bbb1e8eca463cccd584ce" data-source-kind="1" data-glyph="noteheadBlack" data-class="notehead"/>
      <path d="M0.388 -0.5C0.744 -0.5 1.18 -0.172 1.18 0.168C1.18 0.372 1.02 0.5 0.792 0.5C0.352 0.5 0 0.176 0 -0.168C0 -0.376 0.172 -0.5 0.388 -0.5Z" transform="translate(37.633 -23.5904)" fill="#000000" data-prov="d10593c1a375a3b07eb107dae9e897b3" data-source-kind="1" data-glyph="noteheadBlack" data-class="notehead"/>
      <path d="M0.388 -0.5C0.744 -0.5 1.18 -0.172 1.18 0.168C1.18 0.372 1.02 0.5 0.792 0.5C0.352 0.5 0 0.176 0 -0.168C0 -0.376 0.172 -0.5 0.388 -0.5Z" transform="translate(39.7136 -23.5904)" fill="#000000" data-prov="ba9722cd8f95336b0804751c84983573" data-source-kind="1" data-glyph="noteheadBlack" data-class="notehead"/>
      <path d="M0.388 -0.5C0.744 -0.5 1.18 -0.172 1.18 0.168C1.18 0.372 1.02 0.5 0.792 0.5C0.352 0.5 0 0.176 0 -0.168C0 -0.376 0.172 -0.5 0.388 -0.5Z" transform="translate(41.7943 -23.5904)" fill="#000000" data-prov="103fdcd52932b1c8f5fab0036c2dd002" data-source-kind="1" data-glyph="noteheadBlack" data-class="notehead"/>
      <path d="M0.388 -0.5C0.744 -0.5 1.18 -0.172 1.18 0.168C1.18 0.372 1.02 0.5 0.792 0.5C0.352 0.5 0 0.176 0 -0.168C0 -0.376 0.172 -0.5 0.388 -0.5Z" transform="translate(43.875 -23.5904)" fill="#000000" data-prov="fcd49faa62e91333932dbac75206c859" data-source-kind="1" data-glyph="noteheadBlack" data-class="notehead"/>
      <path d="M0.388 -0.5C0.744 -0.5 1.18 -0.172 1.18 0.168C1.18 0.372 1.02 0.5 0.792 0.5C0.352 0.5 0 0.176 0 -0.168C0 -0.376 0.172 -0.5 0.388 -0.5Z" transform="translate(45.9557 -23.5904)" fill="#000000" data-prov="cc13049cf24d89de78d5dcc3bed18d7f" data-source-kind="1" data-glyph="noteheadBlack" data-class="notehead"/>
      <path d="M0.388 -0.5C0.744 -0.5 1.18 -0.172 1.18 0.168C1.18 0.372 1.02 0.5 0.792 0.5C0.352 0.5 0 0.176 0 -0.168C0 -0.376 0.172 -0.5 0.388 -0.5Z" transform="translate(48.0363 -23.5904)" fill="#000000" data-prov="88a15f00dc6e06aaf9f2532f05f6197e" data-source-kind="1" data-glyph="noteheadBlack" data-class="notehead"/>
      <path d="M0.388 -0.5C0.744 -0.5 1.18 -0.172 1.18 0.168C1.18 0.372 1.02 0.5 0.792 0.5C0.352 0.5 0 0.176 0 -0.168C0 -0.376 0.172 -0.5 0.388 -0.5Z" transform="translate(50.117 -23.5904)" fill="#000000" data-prov="cd16148313e9a4f391ab0cabfeb1ee4c" data-source-kind="1" data-glyph="noteheadBlack" data-class="notehead"/>
      <path d="M0.388 -0.5C0.744 -0.5 1.18 -0.172 1.18 0.168C1.18 0.372 1.02 0.5 0.792 0.5C0.352 0.5 0 0.176 0 -0.168C0 -0.376 0.172 -0.5 0.388 -0.5Z" transform="translate(52.1977 -23.5904)" fill="#000000" data-prov="df598a181d9acccffc346705fce5da9b" data-source-kind="1" data-glyph="noteheadBlack" data-class="notehead"/>
      <path d="M0.144 0V4H0V0Z" transform="translate(13.903 -12.8926)" fill="#000000" data-prov="867b15e7cfaeccccfe301517166fe106" data-source-kind="9" data-glyph="barlineSingle" data-class="barline"/>
      <path d="M0.144 0V4H0V0Z" transform="translate(30.9508 -12.8926)" fill="#000000" data-prov="2d8913235b36cc0b1c41dc5238cba014" data-source-kind="9" data-glyph="barlineSingle" data-class="barline"/>
      <path d="M0.144 0V4H0V0Z" transform="translate(47.9986 -12.8926)" fill="#000000" data-prov="b263edd8a4514fa237d4e7942c04be8c" data-source-kind="9" data-glyph="barlineSingle" data-class="barline"/>
      <path d="M0.144 0V4H0V0Z" transform="translate(65.0465 -12.8926)" fill="#000000" data-prov="abc1bd57e0116cfc47c4f84f0c22b2e6" data-source-kind="9" data-glyph="barlineSingle" data-class="barline"/>
      <path d="M0.144 0V4H0V0Z" transform="translate(82.0943 -12.8926)" fill="#000000" data-prov="9f811a0578b546d35393e29bb06afe9b" data-source-kind="9" data-glyph="barlineSingle" data-class="barline"/>
      <path d="M0.144 0V4H0V0Z" transform="translate(7.565 -22.5904)" fill="#000000" data-prov="7c62f742d0a60d8a6177a714ef9241af" data-source-kind="9" data-glyph="barlineSingle" data-class="barline"/>
      <path d="M0.144 0V4H0V0Z" transform="translate(17.0876 -22.5904)" fill="#000000" data-prov="0b1e63cbd07616159ee70000e3c76056" data-source-kind="9" data-glyph="barlineSingle" data-class="barline"/>
      <path d="M0.144 0V4H0V0Z" transform="translate(26.6103 -22.5904)" fill="#000000" data-prov="f21f4e337050d50f36f7d905196db794" data-source-kind="9" data-glyph="barlineSingle" data-class="barline"/>
      <path d="M0.144 0V4H0V0Z" transform="translate(36.133 -22.5904)" fill="#000000" data-prov="f4a3968aa56472207e4e921c44dfa1d7" data-source-kind="9" data-glyph="barlineSingle" data-class="barline"/>
      <path d="M0.144 0V4H0V0ZM0.912 4H0.412V0H0.912Z" transform="translate(53.9784 -22.5904)" fill="#000000" data-prov="d99180b4838ec1269b3f4caee0201968" data-source-kind="9" data-glyph="barlineFinal" data-class="barline"/>
    </g>
  </g>
</svg>
